<svg width="32" height="32" viewBox="0 0 32 32" fill="none" xmlns="http://www.w3.org/2000/svg">
<path fill-rule="evenodd" clip-rule="evenodd" d="M4.6875 4.68625C7.685 1.68675 11.7575 0 16 0C20.2425 0 24.315 1.68675 27.3125 4.68625C30.3125 7.68575 32 11.7583 32 16C32 20.2417 30.3125 24.3142 27.3125 27.3137C24.315 30.3132 20.2425 32 16 32C11.7575 32 7.685 30.3132 4.6875 27.3137C1.6875 24.3142 0 20.2417 0 16C0.000831175 11.7565 1.68691 7.68694 4.6875 4.68625ZM24.0133 25.2264C24.1869 25.0884 24.3503 24.9586 24.4859 24.8569C24.7379 24.6664 24.9041 24.3839 24.9484 24.0712C24.9926 23.7584 24.9112 23.4409 24.722 23.188L22.1278 19.7396C21.9372 19.4875 21.6546 19.3212 21.3417 19.2769C21.0288 19.2327 20.7112 19.3141 20.4581 19.5034L19.5209 20.2087C19.2094 20.4451 18.8298 20.5745 18.4387 20.5777C18.0477 20.5809 17.6661 20.4577 17.3507 20.2264C15.3739 18.7924 13.8734 16.7978 13.0436 14.501C12.9088 14.1338 12.8962 13.7329 13.0077 13.3579C13.1191 12.983 13.3487 12.654 13.6621 12.4201L14.6014 11.7151C14.8533 11.5245 15.0196 11.2419 15.0638 10.9292C15.1081 10.6164 15.0267 10.2988 14.8375 10.0458L12.2434 6.59794C12.0528 6.34587 11.7702 6.17952 11.4573 6.13526C11.1444 6.091 10.8268 6.17244 10.5737 6.36175C10.4312 6.46861 10.2519 6.59672 10.0604 6.73206L10.0467 6.74174C9.5701 7.07966 8.98155 7.49696 8.72669 7.77646C7.3721 9.26015 7.59933 11.5335 8.02616 13.1793C8.59046 15.3488 9.84884 17.8039 11.5711 20.0919C13.2915 22.3795 15.3005 24.2695 17.2296 25.4136C18.692 26.2809 20.8128 27.1285 22.6136 26.2387C22.9559 26.0696 23.5282 25.6142 23.9867 25.2475L24.0133 25.2264Z" fill="url(#paint0_linear_11028_120)"/>
<defs>
<linearGradient id="paint0_linear_11028_120" x1="1600" y1="0" x2="1600" y2="3200" gradientUnits="userSpaceOnUse">
<stop stop-color="white"/>
<stop offset="1" stop-color="#229ED9"/>
</linearGradient>
</defs>
</svg>
